<svg width="30" height="30" viewBox="0 0 30 30" fill="none" xmlns="http://www.w3.org/2000/svg">
<path fill-rule="evenodd" clip-rule="evenodd" d="M15 25C20.5229 25 25 20.5229 25 15C25 9.47715 20.5229 5 15 5C9.47715 5 5 9.47715 5 15C5 20.5229 9.47715 25 15 25ZM15 27.5C21.9035 27.5 27.5 21.9035 27.5 15C27.5 8.09644 21.9035 2.5 15 2.5C8.09644 2.5 2.5 8.09644 2.5 15C2.5 21.9035 8.09644 27.5 15 27.5Z" fill="white"/>
<path d="M13.75 13.75C13.75 13.0596 14.3096 12.5 15 12.5C15.6904 12.5 16.25 13.0596 16.25 13.75V20C16.25 20.6904 15.6904 21.25 15 21.25C14.3096 21.25 13.75 20.6904 13.75 20V13.75Z" fill="white"/>
<path d="M16.25 10C16.25 10.6904 15.6904 11.25 15 11.25C14.3096 11.25 13.75 10.6904 13.75 10C13.75 9.30965 14.3096 8.75 15 8.75C15.6904 8.75 16.25 9.30965 16.25 10Z" fill="white"/>
</svg>
