<svg width="30" height="30" viewBox="0 0 30 30" fill="none" xmlns="http://www.w3.org/2000/svg">
<path fill-rule="evenodd" clip-rule="evenodd" d="M15 2.5C14.3096 2.5 13.75 3.05965 13.75 3.75V3.8475C12.841 3.99585 12.0665 4.30754 11.416 4.74119C10.4932 5.35639 9.89361 6.1677 9.50696 6.94099C9.12278 7.70938 8.9369 8.46264 8.84514 9.01325C8.79875 9.29152 8.77509 9.52615 8.76294 9.6961C8.75686 9.78129 8.75363 9.85084 8.75191 9.9022C8.75106 9.9279 8.75058 9.94911 8.75031 9.9655L8.75006 9.98645L8.75001 9.99416L8.75 9.99732V9.99873C8.75 9.99938 8.75 10 10 10H8.75V14.6537L5.17814 20.6069C4.94644 20.993 4.94036 21.474 5.16225 21.8659C5.38414 22.2578 5.79966 22.5 6.25 22.5H23.75C24.2004 22.5 24.6159 22.2578 24.8377 21.8659C25.0596 21.474 25.0536 20.993 24.8219 20.6069L21.25 14.6537V10H20C21.25 10 21.25 9.99938 21.25 9.99873V9.99732V9.99416V9.98645L21.2496 9.9655C21.2494 9.94911 21.249 9.9279 21.2481 9.9022C21.2464 9.85084 21.2431 9.78129 21.237 9.6961C21.2249 9.52615 21.2013 9.29152 21.1549 9.01325C21.0631 8.46264 20.8772 7.70938 20.493 6.94099C20.1064 6.1677 19.5067 5.35639 18.584 4.74119C17.9335 4.30754 17.159 3.99585 16.25 3.8475V3.75C16.25 3.05965 15.6904 2.5 15 2.5ZM11.2505 9.98549L11.25 10.0054V15C11.25 15.2265 11.1884 15.4489 11.0719 15.6431L8.45774 20H21.5423L18.9281 15.6431C18.8116 15.4489 18.75 15.2265 18.75 15V10.0055L18.7495 9.98549C18.7488 9.96361 18.7471 9.92575 18.7434 9.87421C18.736 9.77073 18.7206 9.61473 18.6889 9.42425C18.6244 9.03736 18.4978 8.54062 18.257 8.05901C18.0186 7.5823 17.6808 7.14361 17.1973 6.82131C16.7216 6.50422 16.0313 6.25 15 6.25C13.9688 6.25 13.2784 6.50422 12.8028 6.82131C12.3193 7.14361 11.9814 7.5823 11.743 8.05901C11.5022 8.54062 11.3756 9.03736 11.3111 9.42425C11.2794 9.61473 11.264 9.77073 11.2566 9.87421C11.2529 9.92575 11.2513 9.96361 11.2505 9.98549ZM17.5 23.75C17.5 25.1307 16.3808 26.25 15 26.25C13.6193 26.25 12.5 25.1307 12.5 23.75H17.5Z" fill="#FFFFFF"/>
</svg>
