<svg width="30" height="30" viewBox="0 0 30 30" fill="none" xmlns="http://www.w3.org/2000/svg">
<path fill-rule="evenodd" clip-rule="evenodd" d="M13.125 22.5C7.94733 22.5 3.75 18.3026 3.75 13.125C3.75 7.94732 7.94733 3.75 13.125 3.75C18.3026 3.75 22.5 7.94732 22.5 13.125C22.5 15.2836 21.7705 17.2719 20.5445 18.8565L25.4711 23.8691C25.955 24.3615 25.9483 25.1529 25.4559 25.6369C24.9635 26.1207 24.172 26.1139 23.6881 25.6215L18.7661 20.6136C17.1965 21.7979 15.2428 22.5 13.125 22.5ZM20 13.125C20 16.922 16.922 20 13.125 20C9.32804 20 6.25 16.922 6.25 13.125C6.25 9.32804 9.32804 6.25 13.125 6.25C16.922 6.25 20 9.32804 20 13.125Z" fill="white"/>
</svg>
